<?xml version="1.0" encoding="UTF-8" standalone="no"?>
<!-- Created with Inkscape (http://www.inkscape.org/) -->

<svg
   version="1.1"
   id="svg1"
   width="442.02017"
   height="371.46579"
   viewBox="0 0 442.02017 371.46579"
   sodipodi:docname="keith-lazarus-sPZXWoWHqX8-unsplash-removebg-preview.png"
   xmlns:inkscape="http://www.inkscape.org/namespaces/inkscape"
   xmlns:sodipodi="http://sodipodi.sourceforge.net/DTD/sodipodi-0.dtd"
   xmlns="http://www.w3.org/2000/svg"
   xmlns:svg="http://www.w3.org/2000/svg">
  <defs
     id="defs1" />
  <sodipodi:namedview
     id="namedview1"
     pagecolor="#ffffff"
     bordercolor="#000000"
     borderopacity="0.25"
     inkscape:showpageshadow="2"
     inkscape:pageopacity="0.0"
     inkscape:pagecheckerboard="0"
     inkscape:deskcolor="#d1d1d1"
     showgrid="true">
    <inkscape:grid
       id="grid3"
       units="px"
       originx="-169.2"
       originy="-38.634205"
       spacingx="1"
       spacingy="1"
       empcolor="#0099e5"
       empopacity="0.30196078"
       color="#0099e5"
       opacity="0.14901961"
       empspacing="5"
       enabled="true"
       visible="true" />
    <inkscape:page
       x="0"
       y="0"
       width="442.02017"
       height="371.46579"
       id="page2"
       margin="0"
       bleed="0" />
  </sodipodi:namedview>
  <g
     inkscape:groupmode="layer"
     inkscape:label="Image"
     id="g1"
     transform="translate(-169.2,-38.634205)">
    <path
       style="fill:#ffff"
       d="m 290.7,409.6 h -2.61803 l 0.61803,-1 0.61803,-1 h 1.38197 1.38197 l 0.61803,1 0.61803,1 z m 18,0 h -2.5 v -0.38499 -0.38499 l 2.5,-1.63806 2.5,-1.63807 v 2.02306 2.02305 z m 24.5,0 h -8 v -1.44098 -1.44099 l 1.04398,-0.64521 1.04397,-0.64521 2.34141,1.53415 2.3414,1.53414 0.66826,-0.66825 0.66825,-0.66826 3.35973,0.28946 3.35972,0.28946 0.47064,-1.81916 0.47064,-1.81915 0.116,2.75 0.116,2.75 z m 28.92107,-1.5 -0.7805,2 -0.0703,-1.42126 -0.0703,-1.42126 -1.54857,-1.71115 -1.54856,-1.71114 0.64668,-2.57658 0.64668,-2.57657 1.2997,-1.07866 1.2997,-1.07866 2.14665,2.72904 2.14666,2.72903 -0.29447,2.0586 L 365.7,406.1 h -1.39922 -1.39922 z m 134.33902,1.38404 -114.76009,-0.11596 -4.18389,-4.38806 -4.18389,-4.38807 -0.66252,-2.24598 -0.66252,-2.24597 -3.90359,-6.67483 -3.90359,-6.67483 v -0.92018 -0.92018 l -2,-1.80998 -2,-1.80998 v -1.29795 -1.29796 l -1.12279,-2.46426 -1.12279,-2.46426 -3.46781,0.56275 -3.46781,0.56275 2.46732,-4.89555 2.46731,-4.89554 -0.86068,-2.29377 -0.86068,-2.29376 -1.95535,1.04647 -1.95534,1.04647 -0.5645,-0.91338 -0.5645,-0.91337 -0.2143,-2.58933 -0.2143,-2.58933 h -1.62137 -1.62138 l -1.13908,-2.5 -1.13907,-2.5 H 342.22144 341.2 v -1.5 -1.5 h -1.83333 -1.83334 l -0.71511,0.71512 -0.71512,0.71512 -4.70155,1.24075 -4.70155,1.24074 -3.42126,0.0441 -3.42126,0.0441 -1.71393,1.55109 -1.71394,1.55109 -2.3648,0.27641 -2.36481,0.27642 -1.56528,0.7086 -1.56529,0.7086 -2.18773,-0.80929 -2.18773,-0.8093 1.47968,-2.11254 1.47969,-2.11255 2.77333,-0.69218 2.77333,-0.69217 1.72438,-1.55389 1.72437,-1.55389 2.27563,1.47647 2.27562,1.47646 1.25,-0.428 1.25,-0.428 v -1.38148 -1.38148 l 2,-1.0703 2,-1.07037 v 0.69017 0.69018 l 1.96686,-1.77999 1.96687,-1.77999 h 2.5149 2.5149 l -0.54078,-0.875 -0.54078,-0.875 h 3.05901 3.05902 l 0.11848,-1.25 0.11849,-1.25 -0.15866,-1.23403 -0.15865,-1.23403 1.43902,0.5522 1.43902,0.55221 0.68971,-1.11598 0.68971,-1.11598 2.5478,2.54781 2.54781,2.5478 h 0.79625 0.79624 l 0.65149,-2.05265 0.65149,-2.05265 1.36354,1.13164 1.36354,1.13164 1.4637,-0.82899 1.46369,-0.82899 4.08866,-4.65345 4.08867,-4.65345 v -0.97997 -0.97998 l 2.32855,-0.44513 2.32856,-0.44513 -0.45093,2.35886 -0.45092,2.35886 -1.78753,0.95666 -1.78753,0.95666 -0.66529,3.93784 -0.6653,3.93784 2.0752,2.0752 L 370.2,337.6 h 0.95031 0.95031 l 0.79969,1.25 0.79969,1.25 4.31948,3.81017 4.31949,3.81017 1.18051,-0.38966 1.18052,-0.38966 0.5,-3.42051 0.5,-3.42051 2.11402,-0.10694 2.11402,-0.10694 1.07265,-0.66294 1.07266,-0.66294 1.56333,-3.13376 1.56332,-3.13376 v -1.35993 -1.35993 l 1.24055,-1.98643 1.24054,-1.98643 -1.24054,-1.98643 -1.24055,-1.98643 v -2.0869 -2.08689 l 1.74239,0.33555 1.74238,0.33556 1.31218,2.73777 1.31218,2.73777 1.19544,0.15622 1.19543,0.15623 2.87047,0.12642 2.87047,0.12642 1.04005,-2.28264 1.04004,-2.28265 h 2.83949 2.83948 v -2.5 -2.5 l 0.75,-0.0765 0.75,-0.0765 1.94118,-0.36307 1.94119,-0.36306 2.32218,-0.58283 2.32219,-0.58284 -2.05697,-2.78219 -2.05696,-2.7822 0.62091,-1.61807 0.62092,-1.61808 1.54122,-0.59143 1.54123,-0.59142 3.11771,1.55532 3.11772,1.55533 0.29762,-0.89287 0.29762,-0.89286 2.50723,-3.39835 2.50723,-3.39836 0.70889,0.5 0.70889,0.5 0.32741,-2.86386 0.32741,-2.86387 1.85341,-0.48467 1.85342,-0.48468 0.52729,-1.3741 0.52729,-1.37409 -1.79942,-1.27736 -1.79941,-1.27737 -1.25632,-2.36666 -1.25632,-2.36667 1.52066,-1.52066 1.52066,-1.52066 -0.94961,-2.49765 -0.94961,-2.49766 1.58977,-2.42629 1.58977,-2.42629 2.1868,0.31127 L 448.7,269.1 v 3.66509 3.66508 l 0.5,0.49093 0.5,0.49093 3.32824,0.51908 3.32825,0.51908 -0.64828,-1.6751 -0.64827,-1.67509 -0.55497,-2.75 -0.55497,-2.75 h 1.625 1.625 v -2.375 -2.375 l -0.60728,-3.03642 -0.60729,-3.03643 -1.94189,-0.50781 -1.94189,-0.50782 0.29917,2.16924 0.29918,2.16924 -3.25,0.31336 -3.25,0.31336 v -1.50666 -1.50665 l -2.23803,-1.56758 -2.23803,-1.56757 1.08347,-1.71766 1.08347,-1.71765 3.39502,-0.69435 3.39502,-0.69436 1.33576,1.10858 1.33575,1.10858 0.90847,-1.4357 0.90847,-1.4357 0.0153,1.25 0.0153,1.25 h 1.54181 1.54182 l 2.08097,-1.93872 2.08097,-1.93872 -0.83003,-3.81128 -0.83004,-3.81128 0.15826,-1.54005 0.15826,-1.54005 -1.97404,-1.23281 -1.97404,-1.2328 -1.97697,1.05804 -1.97697,1.05804 v 0.85903 0.85903 l -2.3471,-0.14422 -2.3471,-0.14421 0.0559,-1 0.0559,-1 -0.83364,-4.82518 -0.83364,-4.82518 1.13016,-1.13016 1.13015,-1.13015 2.74466,-0.0447 2.74467,-0.0447 -0.2201,-3.75 -0.2201,-3.75 2.2201,-0.0317 2.2201,-0.0317 -2.75,-2.05173 -2.75,-2.05172 V 213.01659 211.6 l 1.75,-0.008 1.75,-0.008 1.12196,-2.42025 1.12195,-2.42024 -1.1134,-1.1134 -1.11341,-1.11341 -0.50855,-5.70855 L 455.7,193.1 h -3 -3 l 0.29691,1.76338 0.29691,1.76339 -1.47404,0.56564 -1.47405,0.56564 -4.82286,-2.24398 -4.82287,-2.24399 5.80159,-1.08504 5.80159,-1.08504 -1.30159,-1.32076 -1.30159,-1.32077 2.89915,0.71661 2.89916,0.71661 -0.70817,-1.14585 -0.70817,-1.14584 h -2.4096 -2.4096 l 0.54097,-1.40975 0.54098,-1.40976 2.42764,-0.60929 2.42764,-0.6093 V 181.08095 178.6 l -2.25,0.0137 -2.25,0.0137 -2.0544,0.55183 -2.0544,0.55182 -2.43167,3.93452 -2.43167,3.93443 h -1.74488 -1.74488 l -0.62746,-2.5 -0.62746,-2.5 h -1.3242 -1.3242 l -0.61493,-1.93745 -0.61492,-1.93745 0.90474,-1.81255 0.90475,-1.81255 1.69933,-3.25 1.69932,-3.25 -0.80653,-0.11842 -0.80654,-0.11842 -1,0.22428 -1,0.22428 -2.75,0.45418 -2.75,0.45419 V 166.66004 163.6 h -1.94098 -1.94099 l -0.57574,-0.93158 -0.57575,-0.93158 2.26673,-1.63853 2.26673,-1.63854 -2,0.18527 -2,0.18527 -0.81214,-0.11516 -0.81213,-0.11515 3.19008,-4.44211 3.19008,-4.44211 1.34003,-0.51421 1.34003,-0.51422 0.6848,1.10803 0.6848,1.10803 -1.8439,1.34829 -1.84391,1.3483 h 1.28084 1.28083 l 1.7318,-2.13867 1.73179,-2.13868 -1.83678,-3.61132 -1.83678,-3.61133 -2.23472,-1.74264 -2.23472,-1.74264 1.16476,-0.7637 1.16475,-0.76369 -1.36671,-1.86909 -1.36671,-1.86909 -1.47042,0.56425 -1.47042,0.56426 0.4919,1.88103 0.4919,1.88102 -1.52572,1.26624 -1.52572,1.26623 -1.04381,-0.64511 -1.0438,-0.6451 v -1.3913 -1.39129 l 1.75,-1.03139 1.75,-1.0314 -1.5,-1.00204 -1.5,-1.00204 -1,-0.35363 -1,-0.35364 1.37244,-1.66262 1.37245,-1.66262 h 1.37755 1.37756 v -0.60905 -0.60906 l -2.25,-2.37367 -2.25,-2.37367 -1.14301,-0.0173 -1.14301,-0.0173 -0.50399,1.31338 -0.504,1.31338 0.52233,2.93662 0.52234,2.93662 -1.11573,-1.0404 -1.11573,-1.0404 -0.62927,-4.9596 -0.62927,-4.9596 -1.5805,-2.5 -1.5805,-2.5 -2.29983,-4.30291 -2.29983,-4.30292 v -1.51563 -1.51563 l -4.5,-4.629865 -4.5,-4.629863 v -0.897221 -0.89722 L 392.13191,88.50437 390.06381,85.6 h 1.69054 1.69054 L 392.2,84.1 390.95511,82.6 h 0.77743 0.77744 l -1.65851,-1.832622 -1.6585,-1.832622 -1.76406,0.129962 -1.76407,0.129963 -1.1884,0.734471 -1.1884,0.734472 -3.54402,-1.480785 L 376.2,77.702053 V 76.651027 75.6 l 2,-2 2,-2 v -0.976947 -0.976947 l -2.58384,-1.692998 -2.58384,-1.692999 2.08788,-1.1174 2.08788,-1.117401 -4.00404,-0.15967 -4.00404,-0.15967 -0.11848,1.197016 -0.11849,1.197016 0.16232,1.25 0.16232,1.25 h -0.9605 -0.9605 L 369.0179,67.553688 368.66913,66.507376 364.93456,66.044174 361.2,65.580972 v 1.978129 1.978129 l 1.5,-0.575604 1.5,-0.575604 v 0.971052 0.971051 l 3.63994,-0.114062 3.63995,-0.114063 1.83974,3.25 1.83974,3.25 h -3.15095 -3.15094 l -1.63108,-1.47611 -1.63108,-1.47611 -1.94766,-0.30282 -1.94766,-0.30282 -1.10688,-0.691631 -1.10687,-0.691631 -7.89313,0.102675 L 343.7,71.864229 341.48518,73.232114 339.27037,74.6 337.48518,74.61267 335.7,74.62534 329.80908,77.612672 323.91816,80.6 h -4.26126 -4.26125 l -1.04581,3 -1.0458,3 h -1.86089 -1.86089 l -1.94113,1.581635 -1.94113,1.581635 2,-0.666711 2,-0.666712 3.5,-0.580897 3.5,-0.580898 1,-1.283009 1,-1.283009 4,-0.301017 4,-0.301017 -0.29384,-1.75 -0.29383,-1.75 h 1.61122 1.61123 l -0.66611,2.09872 -0.66611,2.098721 2.09872,-0.666108 2.09872,-0.666108 v 1.674376 1.674377 l 1.34068,-0.514469 1.34069,-0.514469 1.40931,0.925776 1.40932,0.925776 -1.77103,1.043165 -1.77103,1.043164 0.58004,0.938539 0.58005,0.93854 h -0.97568 -0.97568 l -0.44681,-1.25 -0.44681,-1.25 -1.55495,3.5 -1.55495,3.5 -0.0816,-1.692582 -0.0816,-1.692583 -2.00376,0.385889 -2.00376,0.385889 -1.24624,0.791381 -1.24624,0.79138 -0.5,0.09911 -0.5,0.09911 -2.75,1.141455 -2.75,1.141455 v 0.993366 0.993366 l -1.39885,-0.536788 -1.39885,-0.536789 -0.66017,1.068173 -0.66011,1.068168 h -2 -2 l 0.63334,1.02478 0.63335,1.02477 -1.32433,-0.27477 L 306.7,102.1 l -0.73469,-1 -0.73468,-1 -0.0153,1.25 -0.0153,1.25 h -1.18501 -1.185 l -6.8434,3.54146 -6.8434,3.54146 -0.97159,-0.60047 -0.9716,-0.60048 v 1.99279 1.9928 l -2.5,-0.45334 -2.5,-0.45333 v 1.08241 1.08242 L 279.95,113.41286 277.7,113.1 l -0.5,-0.5 -0.5,-0.5 -2,-1.12003 -2,-1.12004 0.33483,-2.25966 0.33483,-2.25967 -2.60535,0.6539 -2.60535,0.6539 -2.22948,-1.16808 -2.22948,-1.16809 -2.5,-2.71149 -2.5,-2.711484 -1.31338,0.459831 -1.31337,0.45983 -1.23853,-1.693786 -1.23852,-1.693787 -1.9481,0.339328 L 249.7,97.1 249.6845,94.6 249.669,92.1 247.43446,91.780449 245.2,91.460898 V 92.530449 93.6 h 1.5 1.5 v 0.883423 0.883423 l -2.52488,0.482662 -2.52489,0.482662 0.59227,-1.866085 L 244.33478,92.6 243.01739,92.516667 241.7,92.433333 239.2,92.093899 236.7,91.754464 232.95147,91.427232 229.20293,91.1 229.20147,90.35 229.2,89.6 h 1.5 1.5 v -1.043837 -1.043837 l -1.25,0.16232 -1.25,0.162319 -2.45,-0.118482 L 224.8,87.6 l 0.95,-0.869763 0.95,-0.869763 3.80409,-0.576145 3.8041,-0.576144 2.02012,2.02012 2.02012,2.02012 0.51658,-1.975406 0.51658,-1.975406 3.1592,-0.494539 3.15921,-0.494539 2.25,-0.720899 2.25,-0.720899 v 2.009643 2.009642 l 1.5,0.575604 1.5,0.575604 -0.0318,-1.218615 L 253.13639,85.1 251.9182,83.513343 250.7,81.926686 l -2.27565,-1.212256 -2.27566,-1.212255 -4.72434,0.04681 -4.72435,0.04681 -5.31845,-0.599025 -5.31844,-0.599024 1.6144,-1.648871 1.61441,-1.64887 1.20404,-1.719103 1.20404,-1.719102 3.5,0.814714 3.5,0.814715 2.39948,0.769218 2.39947,0.769217 -0.56648,-3.490837 -0.56649,-3.490837 4.72348,0.126007 4.72347,0.126003 0.13139,-1.75 0.13138,-1.75 H 249.13785 246.2 v -0.576923 -0.576923 l 2.90135,-2.901349 2.90135,-2.901349 0.56726,1.478272 0.56727,1.478272 -0.5756,1.5 -0.57561,1.5 h 1.10699 1.10699 v -3.5 -3.5 l 3.25,0.01531 3.25,0.01531 -1.45225,0.918704 -1.45226,0.918704 -0.83783,-0.517806 -0.83782,-0.517806 0.68592,2.732942 0.68593,2.732942 -1.14585,-0.70817 L 255.2,61.481966 v 1.523833 1.523833 l 1.93426,1.035184 1.93426,1.035184 h 1.12476 1.12475 l -0.61095,-0.988546 -0.61096,-0.988545 1.6194,0.621421 1.6194,0.621422 2.43254,-1.301856 2.43254,-1.301855 v -0.898408 -0.898408 l -1.91584,0.608065 -1.91585,0.608065 -0.7368,-1.192168 -0.7368,-1.192168 -1.3511,1.847744 -1.3511,1.847744 -1.15634,-1.156335 -1.15633,-1.156335 2.41008,-1.997453 2.41008,-1.997452 1.75,0.524922 1.75,0.524921 v -1.50837 -1.508371 l -0.91459,-0.565248 -0.91459,-0.565247 -0.33541,0.976762 L 263.7,56.541063 261.27897,55.320532 258.85794,54.1 l -0.43778,-1.326426 -0.43778,-1.326426 2.17196,1.326426 2.17195,1.326426 2.43686,-2.805764 2.43685,-2.805763 0.125,0.555763 0.125,0.555764 0.125,1 0.125,1 0.5,0.06455 0.5,0.06455 1.75,-0.671538 1.75,-0.671538 V 48.493013 46.6 h 2.44098 2.44099 l 0.61803,1 0.61803,1 h 1.94099 1.94098 v -1.5 -1.5 h 1.5 1.5 v 1.393011 1.393011 l 1.5,0.575604 1.5,0.575604 v -0.780053 -0.780054 l -2.05462,-2.205373 -2.05461,-2.205373 1.48031,-1.480316 1.48032,-1.480316 1.8243,0.685156 1.8243,0.685156 1.10539,1.474452 1.10539,1.474451 1.61725,-0.620594 1.61724,-0.620594 1.48304,2.117342 1.48305,2.117343 1.54432,-1.281673 1.54432,-1.281673 v -0.783936 -0.783936 l -2,0.523012 -2,0.523012 v -0.834795 -0.834795 l 2.52612,-2.170633 2.52613,-2.170634 3.54318,0.799116 3.54317,0.799116 3.11447,-0.893217 3.11447,-0.893218 0.45873,0.458733 0.45873,0.458732 L 316.2,41.1 l -1.285,1.548332 0.55917,0.559167 0.55916,0.559168 2.14848,-2.14848 2.14848,-2.14848 3.18486,0.626866 3.18485,0.626867 5.5,1.599473 5.5,1.599472 1.60538,1.362918 1.60538,1.362918 1.80867,-0.694049 1.80866,-0.694049 -0.72306,1.169938 L 343.08197,47.6 h 2.44981 2.44981 l 3.85921,1.766766 3.8592,1.766766 2.70602,1.81943 2.70603,1.819429 1.10699,-0.684157 1.10699,-0.684157 1.68698,1.479681 1.68699,1.479681 2.5,0.749476 2.5,0.749477 2.74318,1.932039 2.74317,1.932039 1.0508,-0.649431 1.0508,-0.64943 2.48789,1.630127 2.48789,1.630128 -0.5838,0.944614 -0.58381,0.944613 1.59233,-0.611031 1.59232,-0.61103 5.20961,4.335057 5.20962,4.335057 0.74761,1.19437 0.74761,1.19437 5.95307,5.718136 5.95307,5.718137 2.78529,4.124921 2.7853,4.124922 3.76403,4.564357 3.76402,4.564353 v 1.12894 1.12894 l -2.22251,1.55671 -2.2225,1.5567 h 2.17281 2.17282 l 0.902,-1.61178 0.902,-1.61179 2.02141,2.86179 2.02141,2.86178 4.69649,8.71204 4.69648,8.71204 -0.1405,0.28796 -0.14051,0.28796 1.05647,2.77873 1.05648,2.77873 2.52486,2.72127 2.52486,2.72127 0.6258,2 0.6258,2 2.36316,2.82673 2.36317,2.82672 v 1.81629 1.81628 l 1.56338,0.59993 1.56338,0.59992 -0.57969,0.93797 -0.57969,0.93796 1.01631,0.62812 1.01631,0.62811 v 2.10765 2.10765 l 0.61905,-0.61904 0.61905,-0.61905 1.38095,1.38095 1.38095,1.38095 v 0.80708 0.80707 l 2.64731,5.23233 2.64732,5.23232 0.67431,-0.41674 0.6743,-0.41675 1.70855,1.99545 1.70856,1.99544 -0.58919,0.95333 -0.58919,0.95333 h 1.05901 1.05902 v 1.5 1.5 h 0.91764 0.91764 l 1.83236,3.50794 1.83236,3.50794 4.69335,9.24206 4.69336,9.24206 2.537,3 2.537,3 0.79672,1 0.79673,1 2.47292,3.48722 2.47292,3.48721 1.61576,3.51279 1.61575,3.51278 5.21284,6.5 5.21283,6.5 13.79815,14 13.79814,14 11.98467,5.30242 11.98467,5.30242 13.3886,7.98426 13.38859,7.98425 11,9.23185 11,9.23184 0.26009,45.73148 0.26009,45.73148 z m 47.98991,-24.2176 1.25,-2.2e-4 v -3.36795 -3.36796 l -1.02035,-0.71515 -1.02036,-0.71516 -1.22964,-2.79705 -1.22965,-2.79706 v -1.88556 -1.88555 l -2.06296,-0.65476 -2.06296,-0.65476 -5.68704,2.79765 -5.68704,2.79766 -0.38392,0.25697 -0.38392,0.25696 -0.25668,2.33837 -0.25669,2.33837 3.34957,2.29517 3.34957,2.29516 3.79104,0.4115 3.79103,0.4115 2.25,0.0935 2.25,0.0935 v 1.22755 1.22755 z m -19.64583,-2.93727 0.60416,-0.60417 -0.52522,-1.3125 -0.52522,-1.3125 -0.0789,1.91667 -0.079,1.91666 z M 510.65619,372.39253 512.7,372.1 l -0.33956,-2 -0.33956,-2 -2.51143,-3.31568 -2.51142,-3.31568 -0.29024,0.31568 -0.29024,0.31568 1.09742,5.29253 1.09742,5.29253 z M 548.17723,371.6 h 1.8592 l 1.58178,-0.60699 1.58179,-0.60699 v -2.26706 -2.26705 l -2.58022,-4.61652 -2.58022,-4.61651 -1.07148,-0.66222 -1.07149,-0.66221 -1.4067,1.90277 -1.40671,1.90278 0.64592,2.5 0.64591,2.5 0.24633,2.57663 0.24632,2.57662 0.72519,1.17338 0.72518,1.17337 z m -186.5368,-5 h 1.31468 l 1.21273,-1.46125 1.21273,-1.46125 0.0287,-6.87434 0.0287,-6.87434 -2.37987,-2.41441 -2.37987,-2.41441 -2.24163,-3 -2.24164,-3 0.65382,1.8654 0.65382,1.8654 -2.07062,-0.65719 -2.07062,-0.65719 -0.65265,2.05631 -0.65264,2.05631 -1.04798,-0.64768 -1.04797,-0.64768 4.5781,5.62067 4.57811,5.62067 1.15045,2.14964 1.15045,2.14965 -0.54571,3.36284 -0.54578,3.36285 z M 345.7,346.6 h 0.5 v -0.5 -0.5 h -0.5 -0.5 v 0.5 0.5 z m 86.75,-35.25 1.25,-0.41667 V 309.6 308.26667 l -1.25,-0.41667 -1.25,-0.41667 v 2.16667 2.16667 z m 9.69098,-2.75 H 443.2 v -1 -1 h -0.44098 -0.44099 l -0.61803,1 -0.61803,1 z m 5.55902,-17 h 0.5 v -0.5 -0.5 h -0.5 -0.5 v 0.5 0.5 z m 3.16667,-33.33333 0.66666,-0.66667 -0.66666,-0.66667 L 450.2,256.26667 V 257.6 258.93333 Z M 456.2,234.6 h 2 l -0.0318,-0.75 -0.0318,-0.75 -1.34993,-1.77939 -1.34993,-1.77939 -0.61826,1.61118 -0.61828,1.61117 v 0.91822 0.91821 z m 24.08957,-3.73367 1.97376,-0.51616 0.8804,-1.64503 0.88039,-1.64503 -2.35442,-4.98005 -2.35442,-4.98006 -0.0576,-1.25 -0.0577,-1.25 h -2.07143 -2.07143 l 1.57143,1.57143 1.57143,1.57143 v 0.92857 0.92857 h -1.41667 -1.41666 l -0.41578,-1.24734 -0.41578,-1.24733 -1.23801,2.31324 -1.23801,2.31324 2.57045,2.57046 2.57046,2.57046 v 1.69697 1.69697 l 0.5579,0.5579 0.55791,0.55791 z M 462.7,226.6 h 0.5 v -0.5 -0.5 h -0.5 -0.5 v 0.5 0.5 z m -2,-9 h 0.5 v -0.5 -0.5 h -0.5 -0.5 v 0.5 0.5 z m 20,-1 h 0.5 v -0.5 -0.5 h -0.5 -0.5 v 0.5 0.5 z m 1.16667,-3.33333 0.66666,-0.66667 -0.66666,-0.66667 L 481.2,211.26667 V 212.6 213.93333 Z M 479.64098,211.6 h 0.44099 l 0.61803,-1 0.61803,-1 H 480.25902 479.2 v 1 1 z m -1.94098,-1 h 0.5 v -0.5 -0.5 h -0.5 -0.5 v 0.5 0.5 z m -2.5,-2.13131 0.5,0.10068 1.09603,-0.73468 1.09603,-0.73469 0.67182,-2.74521 0.67182,-2.74521 -3.49079,-3.75479 -3.49079,-3.75479 -0.0271,1.75 -0.027,1.75 h -1.53222 -1.53223 l -0.85157,2.25 -0.85157,2.25 1.8838,1.78896 1.88379,1.78895 v 0.88772 0.88772 l 1.75,0.45732 1.75,0.45733 z m 4.5,0.13131 h 0.5 v -0.5 -0.5 h -0.5 -0.5 v 0.5 0.5 z m -16.37244,-2.0318 1.62755,0.0318 1.24489,-1.5 1.24489,-1.5 h -0.93132 -0.93131 l -1.94113,1.4682 -1.94113,1.46819 z M 464.72763,188.6 h 0.4096 l -0.59215,-1.54313 -0.59216,-1.54313 -0.47659,0.4766 -0.4766,0.4766 0.65915,1.06653 0.65915,1.06653 z m -6.39919,-8.20783 0.73959,-1.19668 L 458.575,178.39775 458.08197,177.6 H 456.64098 455.2 v 0.8 0.8 l 1.19443,1.19443 1.19442,1.19442 z M 445.2,173.6 h 2 v -1.5 -1.5 h 1.07143 1.07143 l -1.61905,-1.61905 -1.61905,-1.61905 -0.31692,0.36905 -0.31693,0.36905 -1.13546,2.18426 -1.13545,2.18426 v 0.56574 0.56574 z m -17.5,-15 h 0.5 v -0.5 -0.5 h -0.5 -0.5 v 0.5 0.5 z m 3.44098,-2 H 432.2 v -1 -1 h -0.44098 -0.44099 l -0.61803,1 -0.61803,1 z m 10.55902,0 h 0.5 v -0.5 -0.5 h -0.5 -0.5 v 0.5 0.5 z m -16,-2 h 0.5 v -0.5 -0.5 h -0.5 -0.5 v 0.5 0.5 z m 9.5,-12 h 2.16667 L 436.95,141.35 436.53333,140.1 H 435.2 433.86667 l -0.41667,1.25 -0.41667,1.25 z m -4.5,-4 h 0.5 v -0.5 -0.5 h -0.5 -0.5 v 0.5 0.5 z m -154.94098,-37 H 276.2 v -1.55902 -1.559014 l -1.01631,0.628115 -1.01631,0.628116 0.57533,0.930903 0.57532,0.9309 z m 27.44098,0 h 1.33333 l -0.66666,-0.66667 -0.66667,-0.66666 -0.66667,0.66666 -0.66666,0.66667 z m -18.5,-2.638374 1.5,-0.575604 V 97.993011 97.6 h -1.5 -1.5 v 0.968615 0.968615 z M 288.7,98.6 h 0.5 v -0.5 -0.5 h -0.5 -0.5 v 0.5 0.5 z m -18,-1 h 0.5 v -0.5 -0.5 h -0.5 -0.5 v 0.5 0.5 z m 6,-1 h 0.5 v -0.5 -0.5 h -0.5 -0.5 v 0.5 0.5 z M 257.73203,90.949337 259.2,90.386022 259.2153,89.243011 259.2306,88.1 l 0.94304,1.491641 0.94305,1.491641 1.12877,-1.128774 1.12877,-1.128773 -1.08713,-0.671884 -1.0871,-0.671885 v -2.249853 -2.249854 l 1.4682,-1.941129 1.46819,-1.94113 0.0318,-0.809017 0.0318,-0.809017 -1.14584,0.70817 -1.14585,0.70817 0.6649,-2.649153 L 263.2381,73.6 h -0.9415 -0.9415 l -1.17821,3.570011 -1.17821,3.570011 -1.2814,0.491721 -1.28141,0.491721 -0.63945,3.99894 -0.63946,3.998941 0.55355,0.895653 0.55354,0.895654 z m 140.27699,-1.36465 0.69098,-0.01531 1.35676,-0.859687 1.35677,-0.859687 -1.15465,-0.713613 -1.15465,-0.713613 -1.5155,0.58155 -1.51549,0.58155 0.62239,1.007063 0.6224,1.00706 z M 246.64098,87.6 h 0.44099 l 0.57532,-0.930902 0.57533,-0.930901 -1.01631,-0.628116 L 246.2,84.481966 V 86.040983 87.6 Z M 237.86667,79.266667 238.53333,78.6 237.86667,77.933333 237.2,77.266667 V 78.6 79.933333 Z M 275.14098,79.6 h 0.94099 l 0.61095,-0.988546 0.61096,-0.988545 -1.55194,0.595534 L 274.2,78.813978 V 79.206989 79.6 Z m 11.55902,0 h 0.5 v -0.5 -0.5 h -0.5 -0.5 v 0.5 0.5 z m 109.62244,0 h 2.12245 l -1.32336,-1.75 -1.32337,-1.75 -1.49021,-1.25 -1.49021,-1.25 h -1.34782 -1.34783 l 2.03895,2.188561 2.03896,2.188562 V 78.788561 79.6 Z m -148.01479,-3 h 0.77432 l 0.54777,-0.88631 0.54777,-0.88631 -1.98876,-0.52007 L 246.2,73.787239 v 0.739714 0.739714 l 0.66667,0.666666 L 247.53333,76.6 Z M 287.2,75.1 l 1,-0.618034 -0.0153,-1.690983 L 288.16937,71.1 287.2,72.6 l -0.96937,1.5 -0.0153,0.809017 -0.0153,0.809017 z m 6.55902,-1.5 H 294.2 v -1 -1 h -1.05902 -1.05901 l 0.61803,1 0.61803,1 z M 305.2,73.1 l 1,-0.618034 v -1 -1 l -1,0.618034 -1,0.618034 v 1 1 z m 78.8736,0.5 h 2.00837 l 0.57574,-0.931578 0.57575,-0.931578 -1.83258,-1.318422 L 383.56829,69.1 382.91553,67.35 382.26277,65.6 H 381.23138 380.2 v 0.877555 0.877556 l 1.52258,1.263627 1.52258,1.263628 -0.58997,1.858817 L 382.06522,73.6 Z m -92.93262,-3 H 292.2 v -1 -1 h -0.44098 -0.44099 l -0.61803,1 -0.61803,1 z m -20.40527,-2.015313 0.96429,-0.01531 1.47104,-0.930314 1.47104,-0.930314 -0.74485,-0.744849 -0.74485,-0.744849 -1.69048,1.690476 L 269.77143,68.6 Z M 280.62963,68.6 h 0.5 l 1.07037,-2 1.07037,-2 h -0.5 -0.5 l -1.07037,2 -1.07037,2 z M 295.86667,68.266667 296.53333,67.6 295.86667,66.933333 295.2,66.266667 V 67.6 68.933333 Z M 302.64098,66.6 H 304.2 v -1 -1 h -0.94098 -0.94099 l -0.61803,1 -0.61803,1 z m 39.5,0 H 345.2 V 65.681787 64.763575 L 345.80699,63.181787 346.41398,61.6 H 344.80699 343.2 v 1.5 1.5 h -1.44098 -1.44099 l -0.61803,1 -0.61803,1 z M 268.7,65.6 h 0.5 v -0.5 -0.5 h -0.5 -0.5 v 0.5 0.5 z m 22.38197,0 h 1 l 0.61803,-1 0.61803,-1 h -1 -1 l -0.61803,1 -0.61803,1 z M 331.2,65.442105 h 2.5 l -1.25,-0.504386 -1.25,-0.504386 -1.25,0.504386 -1.25,0.504386 z m -29.39583,-2.112938 0.60416,-0.604167 -0.52522,-1.3125 -0.52522,-1.3125 -0.0789,1.916667 -0.079,1.916666 z M 274.25902,62.6 H 276.2 v -1.5 -1.5 h -0.91821 -0.91822 l -1.57604,0.604785 -1.57604,0.604785 0.55327,0.895215 0.55327,0.895215 z m 44.91045,-0.636134 0.47261,-0.472612 -1.47104,-0.930314 -1.47104,-0.930314 -0.94113,-0.01531 -0.94113,-0.01531 1.93956,1.418239 1.93956,1.418239 z M 268.7,59.6 h 0.5 v -0.5 -0.5 h -0.5 -0.5 v 0.5 0.5 z m 34.5,-1 h 1.33333 L 303.86667,57.933333 303.2,57.266667 302.53333,57.933333 301.86667,58.6 Z m -23,-1 h 1.33333 L 280.86667,56.933333 280.2,56.266667 279.53333,56.933333 278.86667,57.6 Z m 9.5,0 h 0.5 v -0.5 -0.5 h -0.5 -0.5 v 0.5 0.5 z m -3,-2 h 0.5 v -0.5 -0.5 h -0.5 -0.5 v 0.5 0.5 z m 12.5,0 h 1.33333 L 299.86667,54.933333 299.2,54.266667 298.53333,54.933333 297.86667,55.6 Z m 7,0 h 1 v -1 -1 h -1 -1 v 1 1 z m 49.5,0 h 0.5 v -0.5 -0.5 h -0.5 -0.5 v 0.5 0.5 z m -83.55902,-1 h 0.94099 l 0.61803,-1 0.61803,-1 H 272.75902 271.2 v 1 1 z m 11.05902,0 h 1 v -1 -1 h -1 -1 v 1 1 z m 33.5,0 h 0.5 v -0.5 -0.5 h -0.5 -0.5 v 0.5 0.5 z m -22.55902,-1 H 295.2 v -1 -1 h -0.44098 -0.44099 l -0.61803,1 -0.61803,1 z m 36.05902,0 h 1 v -1 -1 h -1 -1 v 1 1 z m 21.5,0 h 0.5 v -0.5 -0.5 h -0.5 -0.5 v 0.5 0.5 z m -38,-2 h 0.5 v -0.5 -0.5 h -0.5 -0.5 v 0.5 0.5 z m 6.5,0 h 1.33333 L 320.86667,50.933333 320.2,50.266667 319.53333,50.933333 318.86667,51.6 Z m -45,-1 h 1 v -0.940983 -0.940983 l -1,-0.618034 -1,-0.618034 V 49.040983 50.6 Z m 68.5,-1 h 0.5 v -0.5 -0.5 h -0.5 -0.5 v 0.5 0.5 z m -6.5,-1 h 1 v -1 -1 h -1 -1 v 1 1 z m -6.94098,-2 H 331.2 v -1 -1 h -1.55902 -1.55901 l 0.61803,1 0.61803,1 z M 303.2,42.6 h 1 v -0.440983 -0.440983 l -1,-0.618034 -1,-0.618034 V 41.540983 42.6 Z m -60.15833,364.975 -0.38334,1.15 -0.72916,-0.72917 L 241.2,407.26667 V 405.73333 404.2 l 1.1125,1.1125 1.1125,1.1125 z m 42.88732,-0.21428 -1.22899,0.97073 -1.25,-0.44906 -1.25,-0.44906 V 405.01667 402.6 h 1.46482 1.46481 l 1.01417,1.89499 1.01417,1.895 z M 322.66862,401.6 h -2.53139 l -0.58049,-1.51273 -0.58049,-1.51274 1.21688,-1.46625 1.21688,-1.46625 1.895,1.01417 1.89499,1.01417 v 1.96481 1.96482 z m 20.53138,-3 h -1 v -0.94098 -0.94099 l 1,-0.61803 1,-0.61803 v 1.55901 1.55902 z m -75.75127,-3.47998 -0.85951,1.53587 -0.69461,-0.69461 L 265.2,395.26667 V 393.43333 391.6 h 0.94098 0.94099 l 0.61314,0.99208 0.61313,0.99208 z M 326.2,391.6 h -1.06277 l -0.5756,-1.5 -0.57561,-1.5 0.64374,-1.67754 0.64373,-1.67754 1.6,1.6 1.6,1.6 -0.60536,1.57754 -0.60536,1.57754 z m -23,-4 h -1 v -1.55902 -1.55901 l 1,0.61803 1,0.61803 v 0.94099 0.94098 z m 56.5,-1 h -0.5 v -0.5 -0.5 h 0.5 0.5 v 0.5 0.5 z m -53.86472,-5 h -1.30195 l -0.63948,-0.63948 -0.63948,-0.63948 0.53183,-0.86052 0.53183,-0.86052 h 0.834 0.83399 l 0.57561,1.5 0.5756,1.5 z m 28.24809,-24 H 333.2 v -0.91821 -0.91822 l 0.60478,-1.57604 0.60479,-1.57604 0.80133,0.49525 0.80134,0.49525 -0.52275,1.99901 -0.52275,1.999 z m -46.7381,-4.17481 -6.86006,0.12668 -0.64261,-0.6426 -0.6426,-0.6426 v -1.95082 -1.95083 l 7.75,0.72065 7.75,0.72064 0.79856,0.48587 0.79856,0.48588 -1.0459,1.26022 -1.04589,1.26023 z M 264.45,350.484 l -2.75,-0.116 -2,-0.44009 -2,-0.44009 -2.75,-1.06523 -2.75,-1.06523 v -1.48567 -1.48567 l 1.75,0.68393 1.75,0.68393 6,0.42906 6,0.42906 2.73853,0.57093 2.73853,0.57094 0.66695,1.07914 0.66694,1.07914 -3.65547,-0.59321 -3.65548,-0.5932 v 0.93713 0.93713 z m -22.75649,-4.07657 -7.49351,0.30742 v -0.98599 -0.986 l 1.5,-1.5 1.5,-1.5 v -1.07991 -1.0799 l 2,1.24902 2,1.24902 v 1.25946 1.25945 h 0.56574 0.56574 l 1.93426,-1.03518 1.93426,-1.03519 0.006,-1.71481 0.006,-1.71482 1.49384,2.86431 1.49384,2.8643 -0.006,0.6357 -0.006,0.63569 z M 338.7,345.6 h -0.5 v -0.5 -0.5 h 0.5 0.5 v 0.5 0.5 z m -105.90894,-1 h -1.34617 l -1.26495,-1.52417 -1.26494,-1.52416 0.49937,-0.49937 0.49937,-0.49938 1.56581,0.60086 1.56581,0.60086 0.54594,1.42268 0.54593,1.42268 z m -9.03204,-3 H 222.2 v -1 -1 h 0.94098 0.94099 l 0.61803,1 0.61803,1 z m -6,-2 h -0.44099 l -0.71352,-1.15451 -0.71353,-1.15451 1.15451,0.71353 1.15451,0.71352 V 339.15902 339.6 Z M 407.95,314.58469 l -1.25,-0.0153 -1.49164,-0.94304 -1.49164,-0.94305 1.17442,-1.17442 1.17443,-1.17443 1.56721,0.6014 1.56722,0.6014 V 313.06862 314.6 Z M 283.86228,309.85 l -0.50439,1.25 v -2.5 -2.5 l 0.50439,1.25 0.50439,1.25 z M 180.2,308.6 h -1.33333 l 0.66666,-0.66667 0.66667,-0.66666 0.66667,0.66666 0.66666,0.66667 z m 117.91652,-1 h -0.62526 l 0.0769,-13.25 0.0769,-13.25 0.34392,2.75 0.34392,2.75 h 0.8671 0.86716 l 0.41659,-2.75 0.41659,-2.75 0.14983,3.81574 0.14983,3.81574 1.00014,1.86879 1.00015,1.86878 -0.95006,2.49884 -0.95006,2.49883 1.19992,0.4261 1.19991,0.4261 -2.47911,4.64054 -2.47912,4.64054 z m 1.75015,-16.33333 0.66666,-0.66667 -0.66666,-0.66667 -0.66667,-0.66666 v 1.33333 1.33333 z m -19.56752,13.04928 -1.03833,1.78405 -0.14557,-1.5 -0.14556,-1.5 0.19653,-1.85931 0.19653,-1.85931 -1.02085,0.63092 -1.02086,0.63093 0.15229,-2.02162 0.15228,-2.02161 h 0.54308 0.54309 l 1.31285,2.96595 1.31286,2.96595 z m 2.56752,0.95072 -0.66667,0.66666 V 304.6 303.26667 l 0.66667,0.66666 0.66666,0.66667 z M 174.7,303.6 h -0.5 v -0.5 -0.5 h 0.5 0.5 v 0.5 0.5 z m 207.00061,-3.00051 -1.49938,1.24438 0.63366,-3.37193 0.63365,-3.37194 1.86573,-2.06445 1.86573,-2.06445 v -0.945 -0.94501 l 2,-1.24902 2,-1.24902 v 1.07422 1.07421 l -1.13526,2.12126 -1.13527,2.12127 -1.86473,2.00155 -1.86474,2.00156 v 1.189 1.18899 z M 304.7,298.6 h -0.5 v -0.5 -0.5 h 0.5 0.5 v 0.5 0.5 z m -134,-1 h -0.5 v -0.5 -0.5 h 0.5 0.5 v 0.5 0.5 z m 134.45469,-3 h -1.04532 l 0.67798,-3.75 0.67797,-3.75 0.36734,-0.41667 0.36734,-0.41666 V 290.43333 294.6 Z M 169.7,293.6 h -0.5 v -0.5 -0.5 h 0.5 0.5 v 0.5 0.5 z m 220,-9 h -0.5 v -0.5 -0.5 h 0.5 0.5 v 0.5 0.5 z m -81.49983,-2 h -0.88214 l -0.46032,-0.75 -0.46032,-0.75 0.72165,-8 0.72166,-8 0.52804,1.5 0.52804,1.5 0.95093,3 0.95093,3 -0.85817,4.25 -0.85817,4.25 z m 85.02127,-4 H 392.2 v -0.8 -0.8 l 0.83472,-0.95 0.83471,-0.95 1.79678,-5 1.79678,-5 0.8685,-0.95 0.86851,-0.95 v 1.79887 1.79887 l -1.35947,3.15113 -1.35947,3.15113 -1.11909,2.75 -1.11909,2.75 z m -82.23869,-14.35032 -0.34994,3.85032 -0.83644,-3.79663 -0.83645,-3.79663 0.62004,-0.62003 0.62004,-0.62004 0.56635,0.56634 0.56634,0.56635 z m -16.08497,-3.39968 -0.43507,2.25 0.33234,-3.41369 0.33234,-3.4137 1.0363,-1.0363 L 297.2,254.2 v 2.2 2.2 h -0.93358 -0.93358 z m -6.41937,0.49554 -1.22159,0.40219 -2.52841,-2.52841 -2.52841,-2.52841 v -2.48036 -2.48035 l -1.03875,-2.73213 -1.03876,-2.73213 1.18215,-0.73061 1.18216,-0.73061 -0.54978,-2.10236 -0.54978,-2.10236 h 1.24145 1.24146 l -0.18048,-4.75 -0.18048,-4.75 0.78862,-1.03404 0.78862,-1.03404 -0.28059,-1.91175 -0.28059,-1.91175 -1.16885,-0.38962 -1.16886,-0.38962 0.74092,-1.16459 0.74091,-1.16459 0.0153,-0.57143 0.0153,-0.57143 1.64456,-1.64456 1.64457,-1.64457 0.40279,3.45021 0.40279,3.45021 -1.04735,0.43684 -1.04736,0.43684 1.85941,0.0789 1.8594,0.0789 -0.41226,3.53134 -0.41227,3.53134 1.30286,-0.49996 1.30289,-0.49986 v 0.88528 0.88528 l -1.25,0.50439 -1.25,0.50439 1.30902,0.0789 1.30901,0.0789 -0.68713,1.1118 -0.68713,1.11181 1.37811,0.9072 1.37812,0.9072 -1.75,1.34124 -1.75,1.34124 v 0.69877 0.69877 l 1.00425,-0.62065 1.00424,-0.62066 -0.25424,3.55963 -0.25425,3.55964 -0.82537,0.002 -0.82536,0.002 0.28852,2.7506 0.28852,2.7506 -0.77217,1.2494 -0.77217,1.2494 h 1.12856 1.12857 l -0.31955,2.17167 -0.31955,2.17167 z M 287.7,230.6 h 0.5 v -0.5 -0.5 h -0.5 -0.5 v 0.5 0.5 z m 3.96482,29 H 291.2 v -2 -2 h 1.53518 1.53519 l -1.07037,2 -1.07037,2 z m 21.03518,-2 h -1.5 v -0.56574 -0.56574 l 1.01004,-1.88729 1.01005,-1.88728 0.42214,-4.50337 0.42215,-4.50338 0.64115,-4.2936 0.64115,-4.2936 -0.94588,-2.5 -0.94588,-2.5 1.83334,-9 1.83334,-9 0.0392,-3.87244 0.0392,-3.87245 -1.5,1.24489 -1.5,1.24489 -0.15049,-2.87245 -0.15049,-2.87244 -0.2029,-6.5 -0.2029,-6.5 0.89176,-8.5 0.89175,-8.5 3.10016,-8.5 3.10017,-8.5 1.61147,-1.67009 1.61147,-1.67009 2.94183,-4.07991 2.94182,-4.07991 1.05818,0.0153 1.05817,0.0153 1.33541,0.84649 1.33541,0.84649 -0.33541,0.88819 -0.33541,0.8882 2.75,0.31642 2.75,0.31642 v 1.43361 1.43358 h 2.55902 2.55901 l -0.61803,1 -0.61803,1 -2.69099,0.0304 -2.69098,0.0304 1.70847,0.99604 1.70846,0.99603 -0.56545,1.47356 -0.56546,1.47355 0.35699,0.0509 0.35699,0.0509 10.56784,0.81572 10.56783,0.81573 3.58303,1.70026 3.58303,1.70026 0.50354,1.92554 0.50354,1.92555 -1.29977,4.31883 -1.29978,4.31882 0.98703,1.76373 0.98704,1.76374 -0.34167,0.17499 -0.34166,0.175 -3,1.51837 -3,1.51837 -1.43429,3.24053 -1.43429,3.24052 -1.64865,-0.52326 -1.64865,-0.52326 -1.21823,2.67372 -1.21823,2.67373 1.26141,0.77959 1.2614,0.77959 -1.71023,1.88979 -1.71024,1.88984 v 0.95565 0.95565 l -2.90429,1.71561 -2.90429,1.71561 H 345.79571 343.2 v 1 1 h -1.96862 -1.96861 l 0.52826,1.37662 0.52826,1.37662 -2.55965,0.64243 -2.55964,0.64243 v 2.04834 2.04834 l -1.88158,-0.59719 -1.88157,-0.59719 -0.59647,1.55436 -0.59646,1.55437 -2.52196,-0.63297 -2.52196,-0.63298 v 5.04939 5.0494 l -1,0.61803 -1,0.61803 v 3.44099 3.44098 h -0.92245 -0.92245 l -1.19381,3.6173 -1.19382,3.6173 -0.0299,4.1327 -0.0299,4.1327 -0.46817,-1.96298 -0.46818,-1.96298 -1.88485,4.96298 -1.88484,4.96298 -8.2e-4,2.25 -8.1e-4,2.25 z m 3.5,-29 0.96937,-1.5 0.0153,-1.25 0.0153,-1.25 h -1 -1 l 0.0153,2.75 0.0153,2.75 z m 84.66419,29 h -0.88101 l 0.68632,-2.75 0.68632,-2.75 1.51222,-1.67834 1.51223,-1.67833 -0.57724,-1.82167 -0.57723,-1.82166 1.4871,-2.86431 1.4871,-2.8643 v -1.32668 -1.32668 l 1.06653,-0.65915 1.06653,-0.65915 0.50278,0.50278 0.50278,0.50278 -1.18352,4.34735 -1.18351,4.34736 -0.53684,1.5 -0.53683,1.5 -0.28632,1.42609 -0.28632,1.42609 -1.79004,3.32391 -1.79005,3.32391 z m -109.00191,-3.75 -0.50439,1.25 v -2.5 -2.5 l 0.50439,1.25 0.50439,1.25 z M 455.7,249.6 h -0.5 v -0.5 -0.5 h 0.5 0.5 v 0.5 0.5 z m -132.89583,-9.27083 -0.60417,0.60416 0.079,-1.91666 0.0789,-1.91667 0.52522,1.3125 0.52522,1.3125 z m -31.9375,-11.0625 -0.66667,0.66666 V 228.6 227.26667 l 0.66667,0.66666 0.66666,0.66667 z M 435.7,223.6 h -0.5 v -0.5 -0.5 h 0.5 0.5 v 0.5 0.5 z m -192.76664,-2.96081 -0.461,2.46081 -0.13618,-2.00945 -0.13618,-2.00946 -2.13402,-1.33271 -2.13402,-1.33272 -0.75418,1.22029 -0.75417,1.22028 -1.11181,-0.68713 -1.1118,-0.68713 V 216.04098 214.6 l -0.75,0.0153 -0.75,0.0153 -1.43786,0.9098 -1.43786,0.90981 -2.03465,-1.42512 -2.03464,-1.42509 h -2.91148 -2.91147 l -4.11602,-1.16744 -4.11602,-1.16743 -3.5,-2.52236 -3.5,-2.52236 -2.70516,-2.58076 -2.70516,-2.58077 -1.54827,-3.70553 -1.54827,-3.70554 -2.74893,-1.42153 -2.74893,-1.42152 -1.92401,-2.12601 -1.92401,-2.12601 1.05867,-1.05867 1.05867,-1.05867 -1.46634,-2.93935 -1.46635,-2.93936 2.33405,-1.94975 2.33404,-1.94976 4.5,-1.70078 4.5,-1.70079 1.31717,-1.006 1.31717,-1.00599 10.68283,-0.31226 10.68283,-0.31225 3,1.51143 3,1.51143 3.36237,3.72901 3.36236,3.72902 -2.33008,-4 -2.33008,-4 -2.23678,-1.78679 -2.23679,-1.78679 0.54542,-1.42134 0.54542,-1.42134 -2.602,-0.65306 -2.602,-0.65306 -1.98892,-2.79318 L 219.2,157.79126 V 157.19563 156.6 l 1.75,0.0498 1.75,0.0498 3.92076,4.80686 3.92075,4.80685 2.85896,1.89338 2.85897,1.89338 2.47222,5.19218 2.47223,5.19219 0.99805,0.61683 0.99806,0.61683 v 1.99585 1.99585 l 1.87379,4.19513 1.8738,4.19514 0.65539,3.66401 0.65538,3.66401 -2.19785,-0.57475 -2.19785,-0.57475 0.7614,1.91074 0.7614,1.91074 0.55992,5.90179 0.55993,5.9018 -1.55548,1.13739 -1.55548,1.13739 z M 206.2,186.6 h 1 v -1.55902 -1.55901 l -1,0.61803 -1,0.61803 V 185.65902 186.6 Z M 446.86667,222.26667 446.2,222.93333 V 221.6 220.26667 l 0.66667,0.66666 0.66666,0.66667 z M 288.7,221.6 h -0.5 v -0.5 -0.5 h 0.5 0.5 v 0.5 0.5 z m -2.00964,-5 h -1.27638 l -0.60699,-1.58179 -0.60699,-1.58178 v -0.31243 -0.31243 l 2.3409,0.14422 2.34091,0.14421 -0.45754,1.75 -0.45753,1.75 z m -1.49036,-5 h -1.33333 l 0.66666,-0.66667 0.66667,-0.66666 0.66667,0.66666 0.66666,0.66667 z m 167.4625,-4.31462 -1.0375,0.33962 -1.2125,-1.2125 L 449.2,205.2 v -1.74098 -1.74099 l 0.90976,-0.56226 0.90976,-0.56226 1.64433,0.63099 1.64434,0.63099 -0.30409,2.54514 -0.3041,2.54513 z M 424.17611,194.896 422.2,195.41276 V 194.00638 192.6 l -0.075,-0.725 -0.075,-0.725 1.0073,-0.33577 1.00729,-0.33576 1.04381,1.95038 1.04382,1.95038 z M 423.7,171.6 h -1.38197 l -0.65915,-1.06653 -0.65915,-1.06653 0.68347,-0.68347 0.68347,-0.68347 1.16666,-0.0335 1.16667,-0.0335 0.68402,0.98572 0.68401,0.98571 -0.49303,0.79774 -0.49303,0.79783 z m -205,-4 h -0.5 v -0.5 -0.5 h 0.5 0.5 v 0.5 0.5 z m -7,-3 h -0.5 v -0.5 -0.5 h 0.5 0.5 v 0.5 0.5 z m 209,-12 h -1.38197 l -0.49433,-0.79985 -0.49433,-0.79985 1.88895,-1.17967 1.88896,-1.17967 0.60538,0.97952 0.60537,0.97952 -0.61803,1 -0.61803,1 z m -3.91667,-3.08333 -0.0833,-0.0833 -1.78647,-1.95314 -1.78648,-1.95314 0.59549,-0.96352 0.59546,-0.96357 h 1.27432 1.27432 v 3 3 z M 424.13657,147.6 h -0.81854 l -0.49303,-0.79775 -0.49303,-0.79774 0.83309,-1.34797 0.83309,-1.34797 1.71355,0.65755 1.71355,0.65755 -1.23507,1.48816 -1.23507,1.48817 z m -86.5199,-2.07895 -1.91667,-0.0789 1.3125,-0.52522 1.3125,-0.52522 0.60417,0.60416 0.60416,0.60413 z M 411.78333,137.6 H 410.2 v -1.58333 -1.58334 l 1.1875,0.39584 1.1875,0.39583 0.39583,1.1875 0.39584,1.1875 z m -5.58333,-1 h -1.33333 l 0.66666,-0.66667 0.66667,-0.66666 0.66667,0.66666 0.66666,0.66667 z m -8.94098,-24 h -0.94099 l -0.65915,-1.06653 -0.65915,-1.06653 0.5336,-0.53361 0.53361,-0.5336 1.06653,0.65915 1.06653,0.65915 V 111.65902 112.6 Z M 270.7,109.6 h -0.5 v -0.5 -0.5 h 0.5 0.5 v 0.5 0.5 z m 122.61581,0 h -0.84609 l -2.48229,-1.95257 -2.48229,-1.95257 -1.16368,1.16368 -1.16368,1.16368 -2.19798,-2.19798 -2.19798,-2.19797 1.92134,-1.40492 1.92135,-1.40493 -1.28537,-1.548767 -1.28537,-1.548771 -1.17688,0.408278 -1.17689,0.408278 -2.81843,-4.452483 -2.81844,-4.452483 0.69444,-1.123628 0.69444,-1.123628 2.3697,2.858392 2.3697,2.858392 1.4083,-1.809841 1.40829,-1.809841 0.59924,0.969599 0.59925,0.969599 -0.59417,1.54837 -0.59416,1.54837 2.84092,0.601433 2.84092,0.601433 1.30996,0.690439 1.30996,0.690439 2.07535,3.64283 2.07534,3.64282 -0.65436,2.60718 L 394.1619,109.6 Z M 240.80417,97.329167 240.2,97.933333 240.2789,96.016667 240.3578,94.1 l 0.52522,1.3125 0.52522,1.3125 z M 368.36667,92.6 h -0.83334 L 366.86667,91.933333 366.2,91.266667 v -1.455778 -1.455778 l 1.5,1.244889 1.5,1.244889 V 91.722445 92.6 Z M 363.2,88.6 h -1.33333 l 0.66666,-0.666667 0.66667,-0.666666 0.66667,0.666666 0.66666,0.666667 z m -19.75,-1.09968 -0.75,-0.09968 -2.5,-0.691315 -2.5,-0.691314 -0.31955,-2.209005 L 337.0609,81.6 h 1.63529 1.63529 l 1.93426,1.035184 1.93426,1.035184 V 85.635184 87.6 Z M 369.2,87.1 l -1,0.618034 V 86.159017 84.6 h 1 1 v 0.940983 0.940983 z m -2.5,-0.5 h -0.5 v -0.5 -0.5 h 0.5 0.5 v 0.5 0.5 z m 22.5,-2 h -1.33333 l 0.66666,-0.666667 0.66667,-0.666666 0.66667,0.666666 0.66666,0.666667 z m -42.58333,-3.078947 -1.91667,-0.07895 1.3125,-0.525219 1.3125,-0.525219 0.60417,0.604166 0.60416,0.604169 z m -122.477,-2.580959 -0.56033,0.613904 -2.17584,-1.524013 -2.17583,-1.524013 -1.26384,0.165497 L 216.7,76.836965 215.45,76.718483 214.2,76.6 v -0.861328 -0.861328 l 2.5,0.477905 2.5,0.477905 v -1.210196 -1.210197 l -1.98875,-0.520071 -1.98876,-0.52007 0.55786,-0.902622 0.55785,-0.902622 0.93772,0.579547 0.93773,0.579547 3.24317,-2.239397 3.24318,-2.239397 -0.75218,0.84501 -0.75218,0.845011 1.65717,1.831151 L 226.50998,72.6 H 224.35499 222.2 v 2.416667 2.416666 l 1.25,0.446429 1.25,0.446428 z M 198.64098,75.6 H 198.2 v -1 -1 h 1.05902 1.05901 l -0.61803,1 -0.61803,1 z m 36.07427,-4.644227 -1.48474,0.56975 -1.05044,-1.962761 L 231.12963,67.6 h 0.9534 0.9534 l 1.58178,0.606989 1.58179,0.606989 V 69.6 70.386022 Z M 217.10638,69.6 H 216.2 v -2 -2 h 0.38337 0.38337 l 0.52301,2 0.52301,2 z m 9.59362,0 h -0.5 v -0.5 -0.5 h 0.5 0.5 v 0.5 0.5 z m -30.96029,-1.159187 -1.72134,0.340813 0.34082,-1.768897 0.34081,-1.768897 2.82849,-0.756423 2.82848,-0.756423 -1.44796,2.184507 L 197.46104,68.1 Z m 42.08785,-1.91976 -1.12756,-0.07895 -1.25,-0.504386 -1.25,-0.504386 V 64.45765 63.481966 l 0.93854,0.580049 0.93854,0.58005 1.03105,-1.771033 1.03105,-1.771032 0.0304,1.718615 0.0304,1.718615 1.75,-0.655846 1.75,-0.655846 -1.37244,1.687231 L 238.95511,66.6 Z M 243.86667,65.266667 243.2,65.933333 V 64.6 63.266667 l 0.66667,0.666666 L 244.53333,64.6 Z M 188.7,64.6 h -0.5 v -0.5 -0.5 h 0.5 0.5 v 0.5 0.5 z m 32,0 h -1.66667 l 0.35834,-1.075 0.35833,-1.075 h 0.95 0.95 l 0.35833,1.075 0.35834,1.075 z m 5,-2 h -0.5 v -0.5 -0.5 h 0.5 0.5 v 0.5 0.5 z m -17,-2 h -1.5 v -1 -1 h 1.5 1.5 v 1 1 z M 239.86667,59.266667 239.2,59.933333 V 58.6 57.266667 l 0.66667,0.666666 L 240.53333,58.6 Z M 240.7,54.6 h -0.5 v -0.5 -0.5 h 0.5 0.5 v 0.5 0.5 z m 2,-1 h -0.5 v -0.5 -0.5 h 0.5 0.5 v 0.5 0.5 z m 12.5,0 h -1.33333 l 0.66666,-0.666667 0.66667,-0.666666 0.66667,0.666666 0.66666,0.666667 z m -1.5,-3 h -0.5 v -0.5 -0.5 h 0.5 0.5 v 0.5 0.5 z m -5,-1 h -0.5 v -0.5 -0.5 h 0.5 0.5 v 0.5 0.5 z m 11.95492,-2.15129 -2.44193,2.34871 -0.66069,-1.84871 -0.66068,-1.84871 -0.50614,-1 -0.50613,-1 0.79181,0.714816 0.79181,0.714816 1.97587,-1.057456 1.97588,-1.057457 0.84107,0.84264 L 263.09686,45.1 Z M 246.7,48.6 h -0.5 v -0.5 -0.5 h 0.5 0.5 v 0.5 0.5 z m 50.65858,-5.598008 -0.75407,0.466042 -1.33037,-0.822214 -1.33037,-0.822213 0.68713,-1.111804 L 295.31803,39.6 h 0.834 0.83399 l 0.56332,1.467975 0.56331,1.467975 z M 265.7,42.569374 h -1 L 266.2,41.6 l 1.5,-0.969374 h 1 1 L 268.2,41.6 l -1.5,0.969374 z m 10.94612,-1.245404 -2.05388,1.136479 -1.4181,-0.876429 -1.41809,-0.87643 1.66356,-0.638369 1.66356,-0.638368 1.80842,0.378319 1.80841,0.378319 z M 280.7,40.6 h -0.5 v -0.5 -0.5 h 0.5 0.5 v 0.5 0.5 z"
       id="path3" />
  </g>
</svg>
